<svg xmlns="http://www.w3.org/2000/svg" viewBox="0 0 1400 900" role="img" aria-label="Home repair crew fallback image">
  <defs>
    <linearGradient id="g" x1="0" x2="1" y1="0" y2="1"><stop offset="0" stop-color="#f8fafc"/><stop offset="0.52" stop-color="#c7d9ff"/><stop offset="1" stop-color="#17468e"/></linearGradient>
    <radialGradient id="glow" cx="70%" cy="20%" r="65%"><stop offset="0" stop-color="#ffffff" stop-opacity=".42"/><stop offset="1" stop-color="#ffffff" stop-opacity="0"/></radialGradient>
    <filter id="shadow" x="-20%" y="-20%" width="140%" height="140%"><feDropShadow dx="0" dy="24" stdDeviation="25" flood-color="#071633" flood-opacity=".25"/></filter>
  </defs>
  <rect width="1400" height="900" fill="url(#g)"/>
  <rect width="1400" height="900" fill="url(#glow)"/>
  <path d="M0 725 C250 660 390 775 620 700 C845 628 980 688 1400 590 L1400 900 L0 900 Z" fill="#071633" opacity=".45"/>
  <path d="M0 760 C240 720 390 820 620 755 C900 675 1050 735 1400 655 L1400 900 L0 900 Z" fill="#ffffff" opacity=".08"/>
  
  <g filter="url(#shadow)">
    <circle cx="480" cy="350" r="115" fill="#fff" opacity=".9"/>
    <circle cx="770" cy="350" r="115" fill="#fff" opacity=".86"/>
    <path d="M355 620 q125-170 250 0 z" fill="#164da3"/>
    <path d="M645 620 q125-170 250 0 z" fill="#0d2d66"/>
    <path d="M392 310 h176 l-26-58 h-124z" fill="#f6c45e"/>
    <path d="M682 310 h176 l-26-58 h-124z" fill="#f6c45e"/>
    <path d="M975 325 l95 95 l-280 280 l-95-95z" fill="#fff" opacity=".85"/>
    <path d="M965 315 l115 115" stroke="#0d2d66" stroke-width="28" stroke-linecap="round"/>
  </g>
  <path d="M1080 105 h230 v48 h-230z" rx="24" fill="#fff" opacity=".1"/>
  <path d="M1108 130 h140" stroke="#fff" stroke-width="12" stroke-linecap="round" opacity=".25"/>
</svg>