<svg xmlns="http://www.w3.org/2000/svg" viewBox="0 0 1400 900" role="img" aria-label="Luxury home remodel fallback image">
  <defs>
    <linearGradient id="g" x1="0" x2="1" y1="0" y2="1"><stop offset="0" stop-color="#f5f7fb"/><stop offset="0.52" stop-color="#dbe8f9"/><stop offset="1" stop-color="#1f5abb"/></linearGradient>
    <radialGradient id="glow" cx="70%" cy="20%" r="65%"><stop offset="0" stop-color="#ffffff" stop-opacity=".42"/><stop offset="1" stop-color="#ffffff" stop-opacity="0"/></radialGradient>
    <filter id="shadow" x="-20%" y="-20%" width="140%" height="140%"><feDropShadow dx="0" dy="24" stdDeviation="25" flood-color="#071633" flood-opacity=".25"/></filter>
  </defs>
  <rect width="1400" height="900" fill="url(#g)"/>
  <rect width="1400" height="900" fill="url(#glow)"/>
  <path d="M0 725 C250 660 390 775 620 700 C845 628 980 688 1400 590 L1400 900 L0 900 Z" fill="#071633" opacity=".45"/>
  <path d="M0 760 C240 720 390 820 620 755 C900 675 1050 735 1400 655 L1400 900 L0 900 Z" fill="#ffffff" opacity=".08"/>
  
  <g filter="url(#shadow)">
    <rect x="170" y="225" width="820" height="430" rx="38" fill="#fff" opacity=".88"/>
    <rect x="210" y="265" width="320" height="250" rx="22" fill="#c9d7ea"/>
    <path d="M560 300 h360 v42 H560zm0 78h230v30H560zm0 58h300v30H560z" fill="#0d2d66" opacity=".78"/>
    <rect x="235" y="535" width="260" height="58" rx="29" fill="#164da3" opacity=".92"/>
    <path d="M260 330 h225 v95 H260z" fill="#fff" opacity=".55"/>
    <path d="M270 425 l80-70 l56 48 l44-36 l42 58z" fill="#164da3" opacity=".5"/>
  </g>
  <path d="M1080 105 h230 v48 h-230z" rx="24" fill="#fff" opacity=".1"/>
  <path d="M1108 130 h140" stroke="#fff" stroke-width="12" stroke-linecap="round" opacity=".25"/>
</svg>