<svg xmlns="http://www.w3.org/2000/svg" viewBox="0 0 1400 900" role="img" aria-label="Modern custom home fallback image">
  <defs>
    <linearGradient id="g" x1="0" x2="1" y1="0" y2="1"><stop offset="0" stop-color="#d9e8ff"/><stop offset="0.52" stop-color="#3b82f6"/><stop offset="1" stop-color="#102a5f"/></linearGradient>
    <radialGradient id="glow" cx="70%" cy="20%" r="65%"><stop offset="0" stop-color="#ffffff" stop-opacity=".42"/><stop offset="1" stop-color="#ffffff" stop-opacity="0"/></radialGradient>
    <filter id="shadow" x="-20%" y="-20%" width="140%" height="140%"><feDropShadow dx="0" dy="24" stdDeviation="25" flood-color="#071633" flood-opacity=".25"/></filter>
  </defs>
  <rect width="1400" height="900" fill="url(#g)"/>
  <rect width="1400" height="900" fill="url(#glow)"/>
  <path d="M0 725 C250 660 390 775 620 700 C845 628 980 688 1400 590 L1400 900 L0 900 Z" fill="#071633" opacity=".45"/>
  <path d="M0 760 C240 720 390 820 620 755 C900 675 1050 735 1400 655 L1400 900 L0 900 Z" fill="#ffffff" opacity=".08"/>
  
  <g filter="url(#shadow)">
    <path d="M210 570 L410 385 L575 510 L760 330 L1040 570 Z" fill="#fff" opacity=".9"/>
    <path d="M270 570 L410 440 L575 570 Z" fill="#173b78"/>
    <path d="M575 570 L760 390 L980 570 Z" fill="#205dbb"/>
    <rect x="330" y="570" width="590" height="140" fill="#fff" opacity=".9"/>
    <rect x="705" y="585" width="130" height="125" fill="#0d2d66" opacity=".86"/>
    <rect x="370" y="600" width="130" height="70" fill="#164da3" opacity=".75"/>
    <rect x="535" y="600" width="105" height="70" fill="#164da3" opacity=".55"/>
  </g>
  <path d="M1080 105 h230 v48 h-230z" rx="24" fill="#fff" opacity=".1"/>
  <path d="M1108 130 h140" stroke="#fff" stroke-width="12" stroke-linecap="round" opacity=".25"/>
</svg>