<svg xmlns="http://www.w3.org/2000/svg" viewBox="0 0 1400 900" role="img" aria-label="Backyard oasis fallback image">
  <defs>
    <linearGradient id="g" x1="0" x2="1" y1="0" y2="1"><stop offset="0" stop-color="#071633"/><stop offset="0.52" stop-color="#17468e"/><stop offset="1" stop-color="#0ea5a6"/></linearGradient>
    <radialGradient id="glow" cx="70%" cy="20%" r="65%"><stop offset="0" stop-color="#ffffff" stop-opacity=".42"/><stop offset="1" stop-color="#ffffff" stop-opacity="0"/></radialGradient>
    <filter id="shadow" x="-20%" y="-20%" width="140%" height="140%"><feDropShadow dx="0" dy="24" stdDeviation="25" flood-color="#071633" flood-opacity=".25"/></filter>
  </defs>
  <rect width="1400" height="900" fill="url(#g)"/>
  <rect width="1400" height="900" fill="url(#glow)"/>
  <path d="M0 725 C250 660 390 775 620 700 C845 628 980 688 1400 590 L1400 900 L0 900 Z" fill="#071633" opacity=".45"/>
  <path d="M0 760 C240 720 390 820 620 755 C900 675 1050 735 1400 655 L1400 900 L0 900 Z" fill="#ffffff" opacity=".08"/>
  
  <g filter="url(#shadow)">
    <path d="M325 545 c90-160 425-160 515 0 c75 135-125 255-255 245 c-185-14-330-120-260-245z" fill="#1db7c4" opacity=".9"/>
    <path d="M395 550 c60-95 325-100 385 0 c50 85-92 165-195 158 c-120-8-235-72-190-158z" fill="#103c8b" opacity=".72"/>
    <rect x="815" y="300" width="330" height="270" rx="22" fill="#fff" opacity=".86"/>
    <path d="M780 300 h410 l-70-90 H850z" fill="#0d2d66"/>
    <path d="M220 720 h930" stroke="#f6c45e" stroke-width="18" opacity=".65"/>
  </g>
  <path d="M1080 105 h230 v48 h-230z" rx="24" fill="#fff" opacity=".1"/>
  <path d="M1108 130 h140" stroke="#fff" stroke-width="12" stroke-linecap="round" opacity=".25"/>
</svg>