<svg xmlns="http://www.w3.org/2000/svg" viewBox="0 0 1400 900" role="img" aria-label="Modern desert estate fallback image">
  <defs>
    <linearGradient id="g" x1="0" x2="1" y1="0" y2="1"><stop offset="0" stop-color="#102a5f"/><stop offset="0.52" stop-color="#1f5abb"/><stop offset="1" stop-color="#021334"/></linearGradient>
    <radialGradient id="glow" cx="70%" cy="20%" r="65%"><stop offset="0" stop-color="#ffffff" stop-opacity=".42"/><stop offset="1" stop-color="#ffffff" stop-opacity="0"/></radialGradient>
    <filter id="shadow" x="-20%" y="-20%" width="140%" height="140%"><feDropShadow dx="0" dy="24" stdDeviation="25" flood-color="#071633" flood-opacity=".25"/></filter>
  </defs>
  <rect width="1400" height="900" fill="url(#g)"/>
  <rect width="1400" height="900" fill="url(#glow)"/>
  <path d="M0 725 C250 660 390 775 620 700 C845 628 980 688 1400 590 L1400 900 L0 900 Z" fill="#071633" opacity=".45"/>
  <path d="M0 760 C240 720 390 820 620 755 C900 675 1050 735 1400 655 L1400 900 L0 900 Z" fill="#ffffff" opacity=".08"/>
  
  <g filter="url(#shadow)">
    <rect x="210" y="430" width="840" height="250" rx="24" fill="#fff" opacity=".92"/>
    <rect x="285" y="350" width="270" height="330" fill="#0a1b3d"/>
    <rect x="595" y="275" width="310" height="405" fill="#153f8e"/>
    <path d="M260 680 h720" stroke="#f6c45e" stroke-width="18" opacity=".8"/>
    <path d="M640 335 h210 M640 405 h210 M640 475 h210" stroke="#fff" stroke-width="22" opacity=".38"/>
  </g>
  <path d="M1080 105 h230 v48 h-230z" rx="24" fill="#fff" opacity=".1"/>
  <path d="M1108 130 h140" stroke="#fff" stroke-width="12" stroke-linecap="round" opacity=".25"/>
</svg>