<svg xmlns="http://www.w3.org/2000/svg" viewBox="0 0 1400 900" role="img" aria-label="Chef kitchen fallback image">
  <defs>
    <linearGradient id="g" x1="0" x2="1" y1="0" y2="1"><stop offset="0" stop-color="#f8fafc"/><stop offset="0.52" stop-color="#e2e8f0"/><stop offset="1" stop-color="#164da3"/></linearGradient>
    <radialGradient id="glow" cx="70%" cy="20%" r="65%"><stop offset="0" stop-color="#ffffff" stop-opacity=".42"/><stop offset="1" stop-color="#ffffff" stop-opacity="0"/></radialGradient>
    <filter id="shadow" x="-20%" y="-20%" width="140%" height="140%"><feDropShadow dx="0" dy="24" stdDeviation="25" flood-color="#071633" flood-opacity=".25"/></filter>
  </defs>
  <rect width="1400" height="900" fill="url(#g)"/>
  <rect width="1400" height="900" fill="url(#glow)"/>
  <path d="M0 725 C250 660 390 775 620 700 C845 628 980 688 1400 590 L1400 900 L0 900 Z" fill="#071633" opacity=".45"/>
  <path d="M0 760 C240 720 390 820 620 755 C900 675 1050 735 1400 655 L1400 900 L0 900 Z" fill="#ffffff" opacity=".08"/>
  
  <g filter="url(#shadow)">
    <rect x="230" y="250" width="870" height="430" rx="34" fill="#fff" opacity=".9"/>
    <rect x="300" y="310" width="730" height="90" fill="#dbe4f2"/>
    <rect x="330" y="430" width="230" height="190" rx="20" fill="#164da3" opacity=".75"/>
    <rect x="600" y="430" width="380" height="190" rx="20" fill="#0d2d66" opacity=".82"/>
    <path d="M360 290 h80 M490 290 h80 M620 290 h80 M750 290 h80 M880 290 h80" stroke="#0d2d66" stroke-width="24" opacity=".5"/>
  </g>
  <path d="M1080 105 h230 v48 h-230z" rx="24" fill="#fff" opacity=".1"/>
  <path d="M1108 130 h140" stroke="#fff" stroke-width="12" stroke-linecap="round" opacity=".25"/>
</svg>