<svg xmlns="http://www.w3.org/2000/svg" viewBox="0 0 1400 900" role="img" aria-label="Commercial build out fallback image">
  <defs>
    <linearGradient id="g" x1="0" x2="1" y1="0" y2="1"><stop offset="0" stop-color="#eaf2ff"/><stop offset="0.52" stop-color="#79a7ff"/><stop offset="1" stop-color="#102a5f"/></linearGradient>
    <radialGradient id="glow" cx="70%" cy="20%" r="65%"><stop offset="0" stop-color="#ffffff" stop-opacity=".42"/><stop offset="1" stop-color="#ffffff" stop-opacity="0"/></radialGradient>
    <filter id="shadow" x="-20%" y="-20%" width="140%" height="140%"><feDropShadow dx="0" dy="24" stdDeviation="25" flood-color="#071633" flood-opacity=".25"/></filter>
  </defs>
  <rect width="1400" height="900" fill="url(#g)"/>
  <rect width="1400" height="900" fill="url(#glow)"/>
  <path d="M0 725 C250 660 390 775 620 700 C845 628 980 688 1400 590 L1400 900 L0 900 Z" fill="#071633" opacity=".45"/>
  <path d="M0 760 C240 720 390 820 620 755 C900 675 1050 735 1400 655 L1400 900 L0 900 Z" fill="#ffffff" opacity=".08"/>
  
  <g filter="url(#shadow)">
    <rect x="360" y="190" width="480" height="540" fill="#102a5f" opacity=".96"/>
    <rect x="850" y="310" width="250" height="420" fill="#1f5abb" opacity=".85"/>
    <path d="M410 250 h90 M410 330 h90 M410 410 h90 M410 490 h90 M410 570 h90 M570 250 h90 M570 330 h90 M570 410 h90 M570 490 h90 M570 570 h90" stroke="#fff" stroke-width="26" opacity=".38"/>
    <path d="M895 365 h60 M895 440 h60 M895 515 h60 M995 365 h60 M995 440 h60 M995 515 h60" stroke="#fff" stroke-width="20" opacity=".45"/>
  </g>
  <path d="M1080 105 h230 v48 h-230z" rx="24" fill="#fff" opacity=".1"/>
  <path d="M1108 130 h140" stroke="#fff" stroke-width="12" stroke-linecap="round" opacity=".25"/>
</svg>