<svg xmlns="http://www.w3.org/2000/svg" viewBox="0 0 1400 900" role="img" aria-label="Las Vegas construction team fallback image">
  <defs>
    <linearGradient id="g" x1="0" x2="1" y1="0" y2="1"><stop offset="0" stop-color="#f7fbff"/><stop offset="0.52" stop-color="#cfe0ff"/><stop offset="1" stop-color="#17468e"/></linearGradient>
    <radialGradient id="glow" cx="70%" cy="20%" r="65%"><stop offset="0" stop-color="#ffffff" stop-opacity=".42"/><stop offset="1" stop-color="#ffffff" stop-opacity="0"/></radialGradient>
    <filter id="shadow" x="-20%" y="-20%" width="140%" height="140%"><feDropShadow dx="0" dy="24" stdDeviation="25" flood-color="#071633" flood-opacity=".25"/></filter>
  </defs>
  <rect width="1400" height="900" fill="url(#g)"/>
  <rect width="1400" height="900" fill="url(#glow)"/>
  <path d="M0 725 C250 660 390 775 620 700 C845 628 980 688 1400 590 L1400 900 L0 900 Z" fill="#071633" opacity=".45"/>
  <path d="M0 760 C240 720 390 820 620 755 C900 675 1050 735 1400 655 L1400 900 L0 900 Z" fill="#ffffff" opacity=".08"/>
  
  <g filter="url(#shadow)">
    <circle cx="390" cy="340" r="92" fill="#fff" opacity=".93"/><circle cx="590" cy="320" r="102" fill="#fff" opacity=".93"/><circle cx="810" cy="350" r="92" fill="#fff" opacity=".93"/>
    <path d="M270 650 q120-180 240 0 z" fill="#164da3"/><path d="M455 650 q145-220 290 0 z" fill="#0d2d66"/><path d="M690 650 q120-180 240 0 z" fill="#164da3"/>
    <path d="M315 305 h150 l-22-54 h-106z M525 282 h160 l-25-58 h-110z M735 315 h150 l-22-54 h-106z" fill="#f6c45e"/>
    <path d="M1000 210 l75 40 l-35 170 l-105-52z" fill="#fff" opacity=".8"/>
  </g>
  <path d="M1080 105 h230 v48 h-230z" rx="24" fill="#fff" opacity=".1"/>
  <path d="M1108 130 h140" stroke="#fff" stroke-width="12" stroke-linecap="round" opacity=".25"/>
</svg>