<svg xmlns="http://www.w3.org/2000/svg" viewBox="0 0 1400 900" role="img" aria-label="Water damage restoration fallback image">
  <defs>
    <linearGradient id="g" x1="0" x2="1" y1="0" y2="1"><stop offset="0" stop-color="#eef7ff"/><stop offset="0.52" stop-color="#8ab8ff"/><stop offset="1" stop-color="#163a78"/></linearGradient>
    <radialGradient id="glow" cx="70%" cy="20%" r="65%"><stop offset="0" stop-color="#ffffff" stop-opacity=".42"/><stop offset="1" stop-color="#ffffff" stop-opacity="0"/></radialGradient>
    <filter id="shadow" x="-20%" y="-20%" width="140%" height="140%"><feDropShadow dx="0" dy="24" stdDeviation="25" flood-color="#071633" flood-opacity=".25"/></filter>
  </defs>
  <rect width="1400" height="900" fill="url(#g)"/>
  <rect width="1400" height="900" fill="url(#glow)"/>
  <path d="M0 725 C250 660 390 775 620 700 C845 628 980 688 1400 590 L1400 900 L0 900 Z" fill="#071633" opacity=".45"/>
  <path d="M0 760 C240 720 390 820 620 755 C900 675 1050 735 1400 655 L1400 900 L0 900 Z" fill="#ffffff" opacity=".08"/>
  
  <g filter="url(#shadow)">
    <rect x="245" y="235" width="790" height="430" rx="38" fill="#fff" opacity=".9"/>
    <path d="M245 580 c180-80 305 80 470 0 c145-70 230 20 320-30 v115 H245z" fill="#1f5abb" opacity=".72"/>
    <rect x="340" y="310" width="220" height="180" rx="26" fill="#c7d9ff"/>
    <rect x="620" y="310" width="300" height="42" rx="21" fill="#0d2d66" opacity=".82"/>
    <rect x="620" y="390" width="220" height="32" rx="16" fill="#17468e" opacity=".42"/>
    <path d="M410 395 c0-55 70-95 70-145 c0 50 70 90 70 145 a70 70 0 0 1-140 0z" fill="#1f5abb" opacity=".85"/>
  </g>
  <path d="M1080 105 h230 v48 h-230z" rx="24" fill="#fff" opacity=".1"/>
  <path d="M1108 130 h140" stroke="#fff" stroke-width="12" stroke-linecap="round" opacity=".25"/>
</svg>